<?xml version="1.0" encoding="UTF-8"?><svg id="Layer_1" xmlns="http://www.w3.org/2000/svg" viewBox="0 0 976.31 482.66"><defs><style>.cls-1{fill:#f8f5ef;}</style></defs><path class="cls-1" d="M78.35,64.42c9.83.73,17.94,4.46,24.31,11.19,6.37,6.74,11.26,15.66,14.68,26.76,3.41,11.11,5.59,23.87,6.55,38.27.95,14.4.91,29.51-.14,45.31,1.39-.29,2.78-.58,4.17-.87,1.39-.29,2.84-.31,4.34-.07,1.97.15,3.06,1.03,3.28,2.65.22,1.62-.49,2.61-2.11,2.94-.23.05-.42.02-.56-.09-.15-.1-.45-.11-.91-.02-.98-.07-1.84-.1-2.56-.09-.72.01-1.55.12-2.48.31-.7.15-1.32.35-1.87.6-.55.26-1.18.45-1.87.6-1.45,22-4.83,42.88-10.14,62.63-5.31,19.75-11.69,37.29-19.13,52.61-7.45,15.33-15.48,27.86-24.09,37.59-8.62,9.73-17.07,15.6-25.36,17.62-6.21,1.57-10.7.63-13.48-2.81-2.78-3.45-4.14-8.52-4.09-15.21.05-6.69,1.36-14.61,3.92-23.77,2.56-9.16,6.03-18.92,10.39-29.3,4.37-10.37,9.5-20.83,15.4-31.39,5.9-10.55,12.17-20.49,18.82-29.81,6.64-9.32,13.49-17.64,20.56-24.96,7.06-7.32,14.05-12.95,20.97-16.91,1.45-22,1.41-40.98-.11-56.94-1.52-15.95-4.79-28.97-9.8-39.05-5.31-9.18-10.96-15.65-16.95-19.4-5.99-3.75-13.39-4.71-22.2-2.87-7.65,1.6-14.95,5.21-21.88,10.84-6.94,5.62-13.03,12.32-18.31,20.1-5.27,7.78-9.81,16.18-13.61,25.17-3.81,9.01-6.48,17.63-8.02,25.88-1.54,8.25-1.91,15.77-1.09,22.55.81,6.79,3,11.75,6.57,14.9,1.55,1.63,1.39,2.63-.46,3.02-.93.19-1.94-.01-3.03-.62-3.63-2.3-6.02-6.81-7.18-13.52-1.17-6.71-1.15-14.43.05-23.17,1.2-8.73,3.5-17.98,6.91-27.73,3.41-9.75,7.79-18.87,13.16-27.37,5.36-8.49,11.75-15.87,19.15-22.16,7.4-6.28,15.74-10.39,25.02-12.33,2.09-.44,4.26-.75,6.52-.95,2.26-.19,4.49-.24,6.69-.15ZM42.06,357.85c5.51-1.43,11.03-4.81,16.58-10.14,5.54-5.33,11.02-12.11,16.44-20.34,5.42-8.23,10.49-17.57,15.2-28.01,4.71-10.44,8.94-21.48,12.68-33.11,3.74-11.63,6.77-23.46,9.1-35.49,2.32-12.03,3.74-23.8,4.23-35.31-8.09,5.31-16.36,13.23-24.8,23.76-8.45,10.53-16.39,22.07-23.81,34.61-7.42,12.54-14.01,25.33-19.75,38.35-5.75,13.02-10.04,24.63-12.87,34.82-2.83,10.19-3.81,18.25-2.93,24.19.88,5.93,4.19,8.16,9.93,6.68Z"/><path class="cls-1" d="M164.68,157.77c4.64-.97,8.84.59,12.6,4.67,3.76,4.09,6.07,9.37,6.95,15.86.6,4.05.66,8.07.16,12.07-.5,4-1.35,7.73-2.56,11.18-1.22,3.46-2.8,6.29-4.76,8.51-1.96,2.22-4.21,3.59-6.76,4.13-3.71.78-6.84-.86-9.38-4.92-2.54-4.06-4.39-9.16-5.56-15.32-1.16-6.15-1.55-12.61-1.15-19.37.4-6.76,1.57-12.43,3.52-17.01.35-.63.76-.99,1.22-1.09,1.39-.29,2.51.45,3.37,2.22.46-.1.74-.22.83-.38.09-.15.25-.26.48-.31l1.04-.22ZM168.53,209.13c3.32-2.64,5.61-6.45,6.86-11.45,1.25-4.99,1.72-10.02,1.38-15.1-.34-5.07-1.38-9.45-3.11-13.12-1.74-3.67-3.94-5.5-6.6-5.5-1.22-.02-2.25.54-3.1,1.69-.85,1.16-1.39,2.31-1.63,3.47.06.27-.04.42-.26.47-.08,3.08-.14,6.57-.17,10.47-.03,3.91.17,7.76.6,11.56.43,3.81,1.16,7.27,2.17,10.39,1.02,3.13,2.3,5.5,3.85,7.12Z"/><path class="cls-1" d="M281.12,159.28c.36-1.74,1.24-2.76,2.63-3.05,1.16-.24,1.56.51,1.2,2.25-.55,3.18-1.24,6.8-2.08,10.87-.84,4.08-1.88,8.11-3.09,12.12-1.22,4.01-2.67,7.79-4.34,11.34-1.68,3.55-3.74,6.41-6.19,8.6-1.64,1.46-3.61,2.42-5.93,2.91-6.03,1.26-11.55-3.15-16.56-13.23-1.02-2.56-2.15-6.5-3.38-11.81-1.23-5.3-2.33-10.84-3.3-16.63-.97-5.78-1.92-11.21-2.87-16.3-.94-5.08-1.79-8.81-2.52-11.16-1.65,3.69-3.44,9-5.38,15.94-1.94,6.94-3.72,14.07-5.34,21.35-1.62,7.3-2.99,14.05-4.11,20.26-1.12,6.22-1.58,10.42-1.36,12.59.16,1.92-.81,3.09-2.89,3.53-1.39.29-2.87-.09-4.42-1.16-1.56-1.06-2.87-3.01-3.95-5.85-.73-2.35-1.52-6.15-2.38-11.39-.85-5.25-1.51-10.67-1.95-16.28-.45-5.6-.74-10.76-.88-15.47-.14-4.7.09-7.95.69-9.74.13-.58.68-.98,1.65-1.18,1.21-.25,2.66.07,4.37.96,1.71.89,2.76,2.28,3.15,4.14.22,1.07.34,3.47.36,7.23.02,3.75.08,7.98.16,12.69.09,4.71.3,9.4.64,14.05.33,4.66.84,8.59,1.51,11.79.32-4.24,1.05-10.02,2.18-17.36,1.13-7.33,2.49-14.71,4.08-22.14,1.59-7.43,3.35-14.05,5.28-19.88,1.92-5.83,3.8-9.62,5.6-11.4.17-.31.73-.57,1.66-.76,1.39-.29,3.01.21,4.85,1.49,1.84,1.28,3.3,3.35,4.38,6.18,1.01,3.69,1.99,9.25,2.95,16.7.95,7.45,2.15,14.92,3.6,22.41,1.44,7.49,3.2,13.87,5.27,19.13,2.07,5.27,4.73,7.57,7.98,6.89,1.16-.24,1.94-.54,2.35-.91,1.98-.97,3.76-2.87,5.34-5.71,1.59-2.83,3.07-6.13,4.46-9.9,1.39-3.77,2.62-7.71,3.7-11.83,1.07-4.12,2.03-8.21,2.88-12.29Z"/><path class="cls-1" d="M353.18,144.36c.46-.1,1.1.05,1.91.44.81.39,1.56.79,2.25,1.2.69.42,1.09.89,1.2,1.42.11.54-.3.9-1.22,1.09l-1.04.22c-3.95.83-7.52,3.39-10.74,7.67-3.22,4.29-5.8,8.17-7.73,11.63.71,4.58,1.59,10.8,2.62,18.65,1.03,7.86,1.84,16.38,2.43,25.57.59,9.2.84,18.6.78,28.21-.06,9.61-.88,18.47-2.47,26.6-1.59,8.12-4.05,14.96-7.39,20.53-3.34,5.56-7.93,8.96-13.76,10.18-4.66.97-9.2-.03-13.6-3-4.39-2.98-7.4-8.33-9.02-16.06-1.39-6.67-1.39-14.73.02-24.21,1.41-9.48,3.7-19.34,6.88-29.61,3.17-10.26,7.05-20.39,11.62-30.39,4.56-9.99,9.31-18.85,14.23-26.55-1.43-9.16-2.8-17.42-4.1-24.81-1.3-7.38-2.66-13.28-4.07-17.72-.67,3.76-1.4,8.36-2.19,13.81-.8,5.45-1.68,11.06-2.65,16.83-.97,5.77-2.06,11.28-3.26,16.54-1.2,5.26-2.68,9.47-4.44,12.61-.71,1.26-2.1,2.11-4.19,2.55-1.63.34-3.33,0-5.12-1.02-1.78-1.02-3.07-3.39-3.85-7.12-1.23-5.86-1.54-12.33-.95-19.41.6-7.08,1.76-13.72,3.52-19.93,1.75-6.21,4-11.48,6.76-15.81,2.75-4.33,5.77-6.84,9.05-7.53.94-.2,1.66-.2,2.19-.04.25-2.28.79-3.78,1.62-4.51.36-.63,1-1.05,1.94-1.24,1.16-.24,2.58.09,4.23.99,1.65.91,2.84,2.54,3.59,4.88.9,3.15,2.07,8.47,3.52,15.95,1.44,7.49,2.97,16.21,4.57,26.17,5.85-7.9,11.48-12.83,16.87-14.8ZM304.62,179.55c1.46-3.38,2.75-7.58,3.88-12.58,1.13-5,2.15-10.19,3.08-15.58.92-5.38,1.67-10.72,2.25-16.03.58-5.3,1.2-9.85,1.86-13.63-2.15,1.29-4.14,4.44-5.99,9.45-1.84,5.01-3.39,10.59-4.64,16.74-1.25,6.15-1.98,12.19-2.18,18.11-.21,5.93.37,10.43,1.74,13.51ZM330.81,281.33c2.09-3.77,3.55-9.42,4.38-16.95.82-7.54,1.16-15.94,1.03-25.21-.14-9.27-.65-19.17-1.52-29.68-.88-10.51-2.01-20.76-3.37-30.75-3.96,7.5-7.72,15.64-11.28,24.44-3.56,8.8-6.64,17.64-9.23,26.51-2.59,8.87-4.51,17.47-5.78,25.79-1.26,8.32-1.48,15.59-.66,21.81.61,4.03,2.16,8.01,4.66,11.94,2.5,3.92,5.71,5.47,9.62,4.65,3.91-.82,7.96-5,12.15-12.54Z"/><path class="cls-1" d="M438.22,124.16c.25-2.28.84-3.51,1.77-3.71,1.62-.34,2.48.88,2.58,3.63-.15,3.93-.43,8.64-.85,14.16-.42,5.51-1.3,10.85-2.65,15.99-1.34,5.15-3.31,9.66-5.88,13.54-2.58,3.88-5.95,6.25-10.13,7.13-4.46.66-8.16-1.98-11.09-7.9-2.93-5.92-5.37-12.92-7.3-21.01-1.93-8.08-3.49-16.1-4.67-24.06-1.18-7.96-2.25-13.64-3.21-17.06-1.71,3.42-3.38,9.33-5,17.74-1.63,8.41-2.94,17.17-3.94,26.28-1,9.11-1.56,17.72-1.68,25.81-.12,8.1.73,13.62,2.56,16.57.06.27.23.51.52.73,1.38.83,1.95,1.82,1.71,2.98-.24,1.17-1.06,1.89-2.45,2.18-2.32.49-4.97-1.19-7.95-5.02-2.29-2.86-4.48-8.38-6.55-16.57-2.08-8.18-3.82-17.98-5.24-29.36-1.42-11.39-2.49-23.75-3.22-37.09-.74-13.34-1-26.5-.81-39.47.19-12.98,1.01-25.25,2.46-36.82,1.45-11.57,3.66-21.28,6.61-29.13.53-2.06,1.62-3.26,3.24-3.6,1.62-.34,3.21.31,4.76,1.93,1.55,1.63,2.55,3.5,2.99,5.63.55,3.78.63,9.4.26,16.85-.38,7.45-1.07,16.02-2.07,25.68-1.01,9.67-2.42,19.98-4.24,30.93-1.83,10.96-3.82,21.66-5.99,32.13.72,11.53,1.77,22.37,3.17,32.51,1.4,10.14,3.13,19.03,5.21,26.66-.09-2.76.12-8.09.65-15.99.53-7.89,1.39-15.94,2.58-24.11,1.19-8.18,2.73-15.59,4.61-22.24,1.88-6.65,4.21-10.27,6.99-10.85,1.85-.39,3.69.27,5.5,1.98,1.81,1.71,3.13,5.12,3.96,10.23.56,2.67,1.35,7.3,2.36,13.9,1.02,6.61,2.28,13.23,3.79,19.86,1.51,6.64,3.21,12.47,5.11,17.5,1.9,5.03,4.12,7.28,6.68,6.74.92-.19,1.59-.47,2-.84,3.09-2.59,5.4-5.99,6.94-10.21,1.54-4.21,2.7-8.49,3.49-12.83.78-4.34,1.33-8.41,1.62-12.23.29-3.82.56-6.86.81-9.14ZM378.79,10.15c-2.86,9.5-4.83,20.9-5.92,34.2-1.09,13.31-1.46,27.16-1.11,41.54,2.55-15.55,4.55-30.3,6-44.23,1.44-13.93,1.79-24.43,1.03-31.51Z"/><path class="cls-1" d="M499.94,83.89c-.33-2.71.09-4.19,1.25-4.43.92-.19,1.84.73,2.76,2.76.8,1.5,1.45,4.91,1.96,10.23.51,5.32.66,11.55.46,18.68-.2,7.14-.78,14.49-1.74,22.06-.96,7.57-2.62,14.39-4.98,20.45-.72,2.38-1.73,4.47-3.05,6.27-1.32,1.81-2.79,2.88-4.41,3.22-1.63.34-3.3-.14-5.02-1.45-1.44-1.09-2.84-3.72-4.19-7.88-1.36-4.16-2.51-8.79-3.45-13.88-.94-5.08-1.72-10.21-2.31-15.37-.6-5.16-.97-9.25-1.12-12.29-.61,2.91-1.34,6.33-2.21,10.27-.87,3.94-1.89,7.77-3.04,11.49-1.16,3.73-2.33,7.1-3.51,10.12-1.18,3.03-2.27,5.07-3.26,6.11-.82.73-1.69,1.19-2.62,1.38-1.16.24-2.46.1-3.9-.43-1.44-.53-2.47-1.71-3.1-3.52-1.02-2.56-1.74-6.31-2.17-11.23-.42-4.92-.62-9.89-.58-14.9.04-5.01.42-9.54,1.15-13.59.73-4.04,1.58-6.59,2.58-7.63.17-.31.49-.52.96-.62,1.16-.24,2.45.18,3.9,1.27,1.44,1.09,2.04,2.22,1.8,3.38-.19,1.43-.17,2.96.05,4.58.21,1.62.29,2.86.23,3.71.17.8-.22,1.3-1.14,1.49-.7.15-1.22-.02-1.56-.51-.8-1.5-1.25-2.51-1.36-3.05-.43,2.59-.65,5.56-.68,8.91-.03,3.34.12,6.65.44,9.92.32,3.27.73,6.39,1.23,9.34.49,2.96,1.06,5.35,1.68,7.16.71-2.37,1.59-5.69,2.64-9.94,1.05-4.25,2.06-8.63,3.06-13.16.99-4.52,2.07-8.92,3.23-13.19,1.16-4.27,2.24-7.49,3.25-9.65.53-.94,1.14-1.49,1.84-1.64,1.16-.24,2.62.36,4.37,1.8,1.75,1.45,2.77,2.83,3.05,4.16.33,1.6.74,4.72,1.23,9.34.48,4.63,1.1,9.58,1.84,14.85.74,5.27,1.64,10.44,2.7,15.5,1.06,5.07,2.27,9.12,3.64,12.17,2.7-4.46,4.76-10.24,6.17-17.36,1.42-7.11,2.34-14.26,2.77-21.45.43-7.18.55-13.88.33-20.1-.21-6.22-.59-10.65-1.15-13.32Z"/><path class="cls-1" d="M590.49,98.95c.18-1.43.97-2.29,2.36-2.58,1.16-.24,1.65.35,1.46,1.78-.49,3.44-1.05,7.73-1.67,12.87-.62,5.14-1.51,10.12-2.68,14.96-1.17,4.83-2.75,9.13-4.75,12.89-2,3.76-4.59,6.11-7.78,7.05l-1.04.22c-4.01.84-7.32-.55-9.95-4.18s-4.78-8.25-6.44-13.88c-1.67-5.63-2.77-11.52-3.33-17.66-.56-6.14-.79-11.31-.7-15.5-.79,3.5-1.8,7.2-3.05,11.07-1.25,3.88-2.54,7.56-3.87,11.03-1.33,3.48-2.77,6.42-4.32,8.83-1.55,2.41-3.14,3.79-4.76,4.13-4.17.87-6.96-.84-8.34-5.14-1.38-4.3-1.9-9.34-1.53-15.12.36-5.77,1.42-11.42,3.17-16.94,1.75-5.51,3.65-9.17,5.69-11,.41-.36,1.31-.69,2.7-.98,1.16-.24,2.42-.3,3.78-.17,1.36.13,2.38.69,3.07,1.65.92.92,1.75,2,2.49,3.23.74,1.24,1.34,2.37,1.8,3.38,1.34-3.34,2.31-6.32,2.9-8.95.6-2.63,1.08-4.26,1.46-4.9.47-1.21,1.06-1.89,1.75-2.04.92-.19,1.79.19,2.59,1.13.8.95,1.08,2,.84,3.16-.36,1.74-.41,6.14-.15,13.18.26,7.04.86,14.36,1.82,21.94.95,7.59,2.42,14.31,4.4,20.15,1.98,5.84,4.37,8.48,7.15,7.89l.7-.15c2.44-1.06,4.46-3.23,6.09-6.49,1.62-3.26,2.96-6.94,4.04-11.07,1.07-4.12,1.89-8.32,2.44-12.61.56-4.29,1.1-8.01,1.65-11.19ZM538.27,125.31c2.21-2.13,4.48-6.36,6.79-12.69,2.31-6.32,4.47-12.76,6.49-19.3-.82.73-1.43.72-1.82-.04-.51-1.28-1.38-3.12-2.6-5.51-1.22-2.38-2.42-3.46-3.58-3.22-.23.05-.44.24-.61.55-1.11,1.63-2.15,4.21-3.1,7.74-.96,3.54-1.67,7.38-2.13,11.5-.47,4.13-.72,8.15-.75,12.05-.03,3.91.4,6.87,1.32,8.9Z"/><path class="cls-1" d="M386.5,384.41c.1-.76.52-1.22,1.26-1.37.62-.13.88.19.78.95-.26,1.83-.56,4.12-.89,6.85-.33,2.74-.81,5.39-1.43,7.97-.62,2.58-1.47,4.86-2.53,6.86-1.07,2-2.45,3.26-4.15,3.76l-.56.12c-2.13.45-3.9-.3-5.3-2.23-1.4-1.93-2.54-4.39-3.43-7.4-.89-3-1.48-6.14-1.77-9.41-.3-3.27-.42-6.02-.37-8.26-.42,1.87-.96,3.83-1.62,5.9-.66,2.07-1.35,4.03-2.06,5.88-.71,1.85-1.48,3.42-2.3,4.71-.83,1.28-1.68,2.02-2.54,2.2-2.22.47-3.71-.45-4.44-2.74-.74-2.29-1.01-4.97-.82-8.05.19-3.08.76-6.08,1.69-9.02.93-2.94,1.94-4.89,3.03-5.86.22-.19.7-.37,1.44-.52.62-.13,1.29-.16,2.01-.09.72.07,1.27.37,1.63.88.49.49.93,1.07,1.33,1.72.39.66.71,1.26.96,1.8.71-1.78,1.23-3.37,1.55-4.77.32-1.4.58-2.27.78-2.61.25-.64.56-1.01.93-1.08.49-.1.95.1,1.38.6.43.5.58,1.07.45,1.68-.19.93-.22,3.27-.08,7.02.14,3.75.46,7.65.97,11.69.51,4.04,1.29,7.62,2.34,10.74,1.06,3.11,2.33,4.51,3.81,4.21l.37-.08c1.3-.57,2.38-1.72,3.24-3.46.86-1.74,1.58-3.7,2.15-5.9.57-2.19,1.01-4.43,1.3-6.72.3-2.28.59-4.27.88-5.96ZM358.68,398.46c1.18-1.14,2.39-3.39,3.61-6.76,1.23-3.37,2.38-6.79,3.46-10.28-.44.39-.76.38-.97-.02-.27-.68-.73-1.66-1.39-2.93-.65-1.27-1.29-1.84-1.91-1.71-.12.03-.23.12-.33.29-.59.87-1.14,2.24-1.65,4.12-.51,1.88-.89,3.93-1.14,6.13-.25,2.2-.38,4.34-.4,6.42-.02,2.08.22,3.66.7,4.74Z"/><path class="cls-1" d="M435.99,372.31c.19-.93.66-1.47,1.4-1.63.62-.13.83.27.64,1.2-.29,1.69-.66,3.62-1.11,5.79-.45,2.17-1,4.32-1.65,6.46-.65,2.13-1.42,4.15-2.31,6.04-.89,1.89-1.99,3.42-3.3,4.58-.87.78-1.92,1.29-3.16,1.55-3.21.67-6.15-1.68-8.82-7.05-.55-1.37-1.15-3.46-1.8-6.29-.66-2.83-1.24-5.78-1.76-8.86-.52-3.08-1.03-5.97-1.53-8.68-.5-2.71-.95-4.69-1.34-5.94-.88,1.96-1.83,4.79-2.87,8.49-1.03,3.7-1.98,7.49-2.84,11.38-.86,3.89-1.6,7.48-2.19,10.79-.6,3.31-.84,5.55-.72,6.71.08,1.02-.43,1.65-1.54,1.88-.74.16-1.53-.05-2.35-.62-.83-.57-1.53-1.6-2.1-3.12-.39-1.25-.81-3.28-1.27-6.07-.46-2.79-.8-5.68-1.04-8.67-.24-2.99-.39-5.73-.47-8.24-.07-2.5.05-4.23.37-5.19.07-.31.36-.52.88-.63.64-.13,1.42.04,2.33.51s1.47,1.21,1.68,2.21c.12.57.18,1.85.19,3.85.01,2,.04,4.25.09,6.76.05,2.51.16,5.01.34,7.49.18,2.49.45,4.58.8,6.28.17-2.26.56-5.34,1.16-9.25.6-3.9,1.33-7.83,2.18-11.79.85-3.96,1.79-7.49,2.81-10.59,1.02-3.1,2.02-5.13,2.98-6.07.09-.17.39-.3.88-.41.74-.15,1.6.11,2.58.79.98.68,1.76,1.78,2.33,3.29.54,1.96,1.06,4.93,1.57,8.9.51,3.97,1.15,7.95,1.92,11.94.77,3.99,1.71,7.39,2.81,10.19,1.1,2.81,2.52,4.03,4.25,3.67.62-.13,1.03-.29,1.25-.48,1.05-.52,2-1.53,2.85-3.04.84-1.51,1.64-3.27,2.38-5.28.74-2.01,1.4-4.1,1.97-6.3.57-2.19,1.08-4.37,1.53-6.54Z"/><path class="cls-1" d="M481.29,364.51c.1-.76.39-1.19.89-1.3.74-.15,1.14.21,1.19,1.08-.17,2.26-.46,5.21-.86,8.85-.4,3.64-1.02,7.29-1.87,10.95-.85,3.66-1.98,6.86-3.41,9.6-1.43,2.74-3.31,4.36-5.66,4.85-1.76.22-3.38-.44-4.86-1.98-1.48-1.54-2.83-3.66-4.04-6.38-1.21-2.71-2.32-5.85-3.32-9.42-1.01-3.57-1.94-7.41-2.8-11.53-.95,3.46-2.07,6.77-3.34,9.92-1.27,3.16-2.65,4.89-4.13,5.2-2.22.47-3.7-.45-4.44-2.74-.74-2.29-1.01-4.97-.81-8.05.19-3.07.76-6.08,1.69-9.02.93-2.93,1.94-4.89,3.03-5.86.68-.44,1.21-.7,1.58-.77,1.11-.23,2.07.05,2.88.84.81.8,1.58,1.71,2.31,2.74-.84-6.49-1.22-13.23-1.13-20.21.09-6.98.56-13.49,1.43-19.53.87-6.03,2.05-11.32,3.55-15.86,1.5-4.54,3.29-7.69,5.37-9.46.22-.19.45-.32.7-.37.99-.21,1.92.38,2.78,1.75.87,1.37,1.27,2.81,1.19,4.31-.03,3.56-.31,7.77-.84,12.62-.53,4.86-1.28,9.94-2.23,15.25-.95,5.31-2.08,10.7-3.39,16.16-1.31,5.46-2.61,10.63-3.92,15.49.58,4.62,1.36,8.98,2.35,13.07.98,4.09,2.06,7.68,3.22,10.77,1.16,3.09,2.38,5.54,3.66,7.35,1.28,1.81,2.43,2.68,3.45,2.61,1.73-.36,3.19-1.85,4.38-4.47,1.19-2.62,2.18-5.6,2.96-8.96.78-3.35,1.34-6.69,1.68-10.02.33-3.33.58-5.83.75-7.49ZM448.18,381.88c1.05-1.11,2.23-3.36,3.52-6.74,1.29-3.38,2.47-6.81,3.55-10.3-.56.41-.88.41-.97-.02-.27-.68-.73-1.66-1.39-2.93-.65-1.27-1.29-1.84-1.91-1.71-.12.03-.23.12-.33.29-.59.87-1.15,2.24-1.65,4.12-.51,1.89-.92,3.94-1.23,6.15-.31,2.21-.44,4.35-.4,6.42.04,2.07.31,3.64.8,4.72ZM465.94,299.48c-1.37,1.48-2.61,4.14-3.74,8.01-1.13,3.87-2.02,8.39-2.68,13.56-.66,5.18-1.13,10.61-1.42,16.3-.29,5.7-.29,11.1,0,16.23,1.21-5.29,2.36-10.75,3.44-16.39,1.08-5.63,1.97-10.93,2.67-15.9.7-4.96,1.22-9.4,1.56-13.33.34-3.92.39-6.75.16-8.48Z"/><path class="cls-1" d="M597.11,183.99c9.83.73,17.94,4.46,24.31,11.19,6.37,6.74,11.26,15.66,14.68,26.76,3.41,11.11,5.59,23.87,6.55,38.27.95,14.4.91,29.51-.14,45.31,1.39-.29,2.78-.58,4.17-.87,1.39-.29,2.84-.31,4.34-.07,1.97.15,3.06,1.03,3.28,2.65.22,1.62-.49,2.61-2.11,2.94-.23.05-.42.02-.56-.09-.15-.1-.45-.11-.91-.02-.98-.07-1.84-.1-2.56-.09-.72.01-1.55.12-2.48.31-.7.14-1.32.35-1.87.6-.55.26-1.18.45-1.87.6-1.45,22-4.83,42.88-10.14,62.63-5.31,19.75-11.69,37.29-19.13,52.61-7.45,15.33-15.48,27.86-24.09,37.59-8.62,9.73-17.07,15.6-25.36,17.62-6.21,1.57-10.7.63-13.48-2.81-2.78-3.45-4.14-8.52-4.09-15.21.05-6.69,1.36-14.61,3.92-23.77,2.56-9.16,6.03-18.92,10.39-29.3,4.37-10.37,9.5-20.83,15.4-31.39,5.9-10.55,12.17-20.49,18.82-29.81,6.64-9.32,13.5-17.64,20.56-24.96,7.06-7.32,14.05-12.95,20.97-16.91,1.45-22,1.41-40.98-.11-56.94-1.52-15.95-4.79-28.97-9.8-39.05-5.31-9.18-10.96-15.65-16.95-19.4-5.99-3.75-13.39-4.71-22.2-2.87-7.65,1.6-14.95,5.21-21.88,10.84-6.94,5.62-13.04,12.32-18.31,20.1-5.27,7.78-9.81,16.18-13.61,25.17-3.81,9-6.48,17.63-8.02,25.88s-1.91,15.77-1.09,22.55c.81,6.79,3,11.75,6.57,14.9,1.55,1.63,1.39,2.63-.46,3.02-.93.19-1.94-.01-3.03-.62-3.63-2.3-6.02-6.81-7.18-13.52-1.17-6.71-1.15-14.43.05-23.17,1.2-8.73,3.5-17.98,6.91-27.73,3.41-9.75,7.79-18.87,13.16-27.37,5.36-8.49,11.75-15.87,19.15-22.16,7.4-6.28,15.74-10.39,25.02-12.33,2.09-.44,4.26-.75,6.52-.95,2.26-.19,4.49-.24,6.69-.15ZM560.82,477.42c5.51-1.43,11.03-4.81,16.58-10.14,5.54-5.33,11.02-12.11,16.44-20.34,5.42-8.23,10.48-17.57,15.2-28.01,4.71-10.44,8.94-21.48,12.68-33.11,3.74-11.63,6.77-23.46,9.1-35.49,2.32-12.03,3.74-23.8,4.23-35.31-8.09,5.31-16.36,13.23-24.8,23.76-8.45,10.53-16.39,22.07-23.81,34.61-7.42,12.54-14.01,25.33-19.75,38.35-5.75,13.02-10.04,24.63-12.87,34.82-2.83,10.19-3.81,18.25-2.93,24.19.88,5.93,4.19,8.16,9.93,6.68Z"/><path class="cls-1" d="M688.25,338.8c-3.95.82-6.94-1.05-8.98-5.63-2.05-4.58-3.29-9.95-3.73-16.12-.44-6.17-.34-12.3.32-18.43.66-6.12,1.6-10.28,2.83-12.49.35-.63.76-.99,1.22-1.09,1.16-.24,2.34.21,3.55,1.34,1.2,1.14,1.63,2.03,1.28,2.65-.36.64-.62.83-.79.58-.17-.24-.38-.34-.6-.29l-.18.87c-.72,2.38-1.21,6.09-1.48,11.16-.27,5.06-.25,10.07.05,15.01.31,4.94.97,9.26,1.98,12.94,1.01,3.69,2.44,5.33,4.3,4.94.46-.1,1.1-.5,1.92-1.24,1.4-1.4,2.72-3.49,3.96-6.25,1.24-2.76,2.31-5.7,3.24-8.81.92-3.11,1.68-6.12,2.29-9.03.6-2.9,1.11-5.1,1.53-6.58.12-.58.53-.94,1.22-1.09.46-.1.98.08,1.56.51.58.44.69.97.34,1.6-.42,1.48-.97,4.03-1.67,7.65-.69,3.63-1.59,7.43-2.7,11.41-1.11,3.99-2.59,7.57-4.47,10.74-1.88,3.18-4.21,5.05-6.99,5.64ZM684.42,275.34c-.35.64-.99,1.04-1.92,1.24-1.63.34-3.03-.62-4.23-2.87-.69-.96-.68-1.8.02-2.51.7-.7,1.63-1.18,2.79-1.42.23-.05.48-.03.74.05.26.09.5.1.74.05,1.04.34,1.75,1.17,2.15,2.47.39,1.31.3,2.31-.28,2.98Z"/><path class="cls-1" d="M791.5,280.64c.36-1.74,1.24-2.76,2.63-3.05,1.16-.24,1.56.51,1.2,2.25-.55,3.18-1.24,6.8-2.08,10.87-.84,4.08-1.88,8.11-3.09,12.12-1.22,4.01-2.67,7.79-4.34,11.34-1.68,3.55-3.74,6.42-6.19,8.6-1.64,1.46-3.61,2.42-5.93,2.91-6.03,1.26-11.55-3.15-16.56-13.23-1.02-2.56-2.15-6.5-3.38-11.81-1.23-5.3-2.33-10.84-3.3-16.63-.97-5.78-1.92-11.21-2.87-16.3-.94-5.08-1.78-8.81-2.52-11.16-1.65,3.69-3.44,9-5.38,15.94-1.94,6.94-3.72,14.07-5.34,21.35-1.62,7.3-3,14.05-4.11,20.26-1.12,6.22-1.58,10.42-1.36,12.59.16,1.92-.81,3.09-2.89,3.53-1.39.29-2.87-.09-4.42-1.16-1.56-1.06-2.87-3.01-3.95-5.85-.73-2.35-1.52-6.15-2.38-11.39-.85-5.25-1.51-10.67-1.95-16.28-.45-5.6-.74-10.76-.88-15.47-.14-4.7.09-7.95.69-9.74.13-.58.68-.98,1.65-1.18,1.21-.25,2.66.07,4.37.96,1.71.89,2.76,2.28,3.15,4.14.22,1.07.34,3.47.36,7.23s.08,7.98.16,12.69c.09,4.71.3,9.4.64,14.05.33,4.66.84,8.59,1.51,11.79.32-4.24,1.05-10.02,2.18-17.36,1.13-7.33,2.49-14.71,4.08-22.13,1.59-7.43,3.35-14.05,5.28-19.88,1.92-5.83,3.8-9.62,5.6-11.4.17-.31.73-.57,1.66-.76,1.39-.29,3.01.21,4.85,1.49,1.84,1.28,3.3,3.35,4.38,6.18,1.01,3.69,1.99,9.25,2.95,16.7.95,7.45,2.15,14.92,3.6,22.41,1.44,7.49,3.2,13.87,5.27,19.13,2.07,5.27,4.73,7.57,7.98,6.89,1.16-.24,1.94-.54,2.35-.91,1.98-.97,3.76-2.87,5.34-5.71,1.58-2.83,3.07-6.13,4.46-9.9,1.39-3.77,2.62-7.71,3.7-11.83,1.07-4.12,2.03-8.21,2.88-12.29Z"/><path class="cls-1" d="M875.23,262c.25-2.28.84-3.51,1.77-3.71,1.62-.34,2.48.88,2.58,3.63-.15,3.93-.43,8.65-.85,14.16-.42,5.51-1.3,10.85-2.65,15.99-1.34,5.15-3.31,9.66-5.88,13.54-2.58,3.88-5.95,6.25-10.13,7.13-4.46.66-8.16-1.98-11.09-7.9-2.93-5.92-5.37-12.92-7.3-21.01-1.93-8.08-3.49-16.1-4.67-24.06-1.18-7.95-2.25-13.64-3.21-17.06-1.71,3.42-3.38,9.33-5,17.74-1.63,8.41-2.94,17.17-3.94,26.28-1,9.11-1.56,17.72-1.68,25.81-.12,8.1.73,13.62,2.56,16.57.06.27.23.51.52.73,1.38.83,1.95,1.82,1.71,2.98-.24,1.17-1.06,1.89-2.45,2.18-2.32.49-4.97-1.19-7.95-5.02-2.29-2.86-4.48-8.38-6.55-16.57-2.08-8.18-3.82-17.98-5.24-29.36-1.42-11.39-2.49-23.75-3.22-37.09-.74-13.34-1-26.5-.81-39.47.19-12.98,1.01-25.25,2.46-36.82,1.45-11.57,3.66-21.28,6.61-29.13.53-2.06,1.62-3.26,3.24-3.6,1.62-.34,3.21.31,4.76,1.93,1.55,1.63,2.55,3.5,2.99,5.63.55,3.78.63,9.4.26,16.85-.38,7.45-1.07,16.02-2.07,25.68-1.01,9.67-2.42,19.98-4.24,30.93-1.83,10.96-3.82,21.66-5.99,32.13.72,11.53,1.77,22.37,3.17,32.51,1.4,10.14,3.13,19.03,5.21,26.66-.1-2.76.12-8.09.65-15.99.53-7.89,1.39-15.94,2.58-24.12,1.19-8.18,2.73-15.59,4.61-22.24,1.88-6.65,4.21-10.27,6.99-10.85,1.85-.39,3.69.27,5.5,1.98,1.81,1.71,3.13,5.12,3.96,10.23.56,2.67,1.35,7.3,2.36,13.9,1.02,6.61,2.28,13.23,3.79,19.86,1.51,6.64,3.21,12.47,5.11,17.5,1.9,5.03,4.12,7.28,6.68,6.74.92-.19,1.59-.47,2-.84,3.09-2.59,5.4-5.99,6.94-10.21,1.54-4.21,2.7-8.49,3.49-12.83.78-4.34,1.33-8.41,1.62-12.23.29-3.81.56-6.86.81-9.14ZM815.8,148c-2.86,9.5-4.83,20.9-5.92,34.2-1.09,13.31-1.46,27.16-1.11,41.54,2.55-15.55,4.55-30.3,6-44.23,1.44-13.93,1.79-24.43,1.03-31.51Z"/><path class="cls-1" d="M925.09,247.82c.47-1.21,1.17-1.91,2.1-2.11,1.62-.34,2.13.39,1.54,2.18-.96,3.54-2.34,7.66-4.14,12.34-1.8,4.69-3.76,9.2-5.88,13.54-2.12,4.34-4.42,8.09-6.91,11.25-2.49,3.17-5,5.01-7.55,5.55-3.48.73-6.3,0-8.45-2.2-2.15-2.19-3.73-5.13-4.75-8.81-1.01-3.68-1.54-7.95-1.59-12.81-.05-4.85.19-9.49.72-13.92.53-4.42,1.31-8.48,2.36-12.18,1.04-3.69,2.15-6.22,3.32-7.58.76-.99,1.84-1.64,3.23-1.93,2.32-.48,4.6.29,6.84,2.33,2.24,2.03,3.52,4.41,3.85,7.12.78,3.74.19,8.45-1.76,14.14-1.96,5.7-6.07,9.76-12.34,12.18.15,3.03.46,5.95.93,8.78.47,2.82,1.16,5.25,2.07,7.29.85,1.77,2.09,2.48,3.72,2.14,1.62-.34,3.43-1.55,5.41-3.64,1.98-2.08,4.02-4.8,6.1-8.16,2.08-3.36,4.11-7.26,6.08-11.7,1.98-4.44,3.67-9.04,5.1-13.79ZM902.26,235.91c-1.52,1.99-2.88,5.34-4.07,10.03-1.19,4.7-1.93,9.86-2.21,15.48,3.61-2.42,6.05-6.07,7.34-10.92,1.28-4.86.93-9.72-1.06-14.59Z"/><path class="cls-1" d="M972.43,239c.47-1.21,1.17-1.91,2.1-2.11,1.62-.34,2.13.39,1.54,2.18-.96,3.54-2.33,7.65-4.13,12.34-1.8,4.69-3.77,9.21-5.88,13.54-2.12,4.34-4.42,8.09-6.91,11.25-2.48,3.17-5,5.01-7.55,5.55-3.48.73-6.3,0-8.45-2.2-2.15-2.19-3.73-5.13-4.75-8.81-1.01-3.68-1.54-7.95-1.59-12.81-.05-4.85.19-9.49.72-13.92.53-4.42,1.31-8.48,2.36-12.18,1.04-3.69,2.15-6.22,3.32-7.58.76-.99,1.84-1.64,3.23-1.93,2.32-.48,4.6.29,6.84,2.33,2.24,2.03,3.52,4.41,3.85,7.12.78,3.74.19,8.45-1.76,14.14-1.96,5.7-6.07,9.76-12.34,12.18.15,3.03.46,5.96.93,8.78.47,2.82,1.16,5.25,2.07,7.29.85,1.77,2.09,2.48,3.72,2.14,1.62-.34,3.43-1.55,5.41-3.64,1.98-2.08,4.02-4.8,6.1-8.16,2.08-3.36,4.11-7.26,6.08-11.71,1.98-4.44,3.67-9.04,5.1-13.79ZM949.6,227.09c-1.53,1.99-2.88,5.34-4.08,10.03-1.19,4.7-1.93,9.86-2.21,15.48,3.61-2.42,6.05-6.07,7.34-10.92,1.28-4.86.93-9.72-1.05-14.59Z"/></svg>